<?xml version="1.0" encoding="UTF-8"?>
<svg id="Layer_1" data-name="Layer 1" xmlns="http://www.w3.org/2000/svg" viewBox="0 0 1954.77 337.73">
  <defs>
    <style>
      .cls-1 {
        fill: none;
        stroke: #cdd6f4;
        stroke-miterlimit: 10;
        stroke-width: 3px;
      }

      .cls-2 {
        fill: #cdd6f4;
        stroke-width: 0px;
      }
    </style>
  </defs>
  <g>
    <path class="cls-1" d="M178.26,273.81l-50.75.44.45,52.1,109.49-.95-3.93-29.26c-10.55-78.53-14.43-158.5-11.53-237.69l.85-23.14-22.88-3.55C135.34,21.72,69.41,16.16,4.02,15.23l-.74,52.09c55.33.79,111.06,5.01,165.99,12.59-1.32,64.63,1.7,129.64,9,193.9Z"/>
    <path class="cls-1" d="M332.5,216.41h47.31c7.55,28.92,16.44,57.49,26.68,85.56l48.95-17.85c-24.44-67.02-40.87-136.95-48.84-207.84-.69-6.12-2.3-20.46-14.55-30.32-7.2-5.79-14.92-7.37-19.07-8.22l-73.61-15.05-28.85,291.1,51.85,5.14,10.16-102.52ZM355.42,87.33c3.05,25.82,7.18,51.5,12.33,76.98h-30.08l7.83-79.01,9.92,2.03Z"/>
    <path class="cls-1" d="M509.12,292.17c-.61-17.25-1.38-34.55-2.28-51.87,7.67,10.64,15.68,21.02,24.02,31.1,5.66,6.84,11.47,13.54,17.09,20.02l39.35-34.14c-5.43-6.26-11.04-12.73-16.31-19.1-20.63-24.92-39.09-51.87-54.87-80.11l-9.26,5.18,107.2-114.67-38.06-35.58-79.84,85.41c-1.24-12.57-2.54-25.12-3.93-37.63l-51.78,5.74c8.35,75.26,13.94,151.8,16.61,227.48l52.07-1.84ZM504.99,164.3l-2.93,1.64c-.12-1.57-.24-3.14-.36-4.71l3.29,3.08Z"/>
    <path class="cls-1" d="M670.87,109.25c6.59,45.94,8.82,92.73,6.62,139.09l52.04,2.47c2.28-48.16.09-96.77-6.49-144.55h25.28v-52.1h-122.4v52.1h65.83l-20.89,3Z"/>
    <path class="cls-1" d="M773.16,251.86c-50.05-.43-100.71-2.79-150.59-7.01l-4.39,51.91c51.18,4.33,103.17,6.75,154.52,7.19l.45-52.1Z"/>
  </g>
  <g>
    <path class="cls-2" d="M202.29,281.69l-50.75.44.45,52.1,109.49-.95-3.93-29.26c-10.55-78.53-14.43-158.5-11.53-237.69l.85-23.14-22.88-3.55C159.36,29.6,93.44,24.04,28.04,23.12l-.74,52.09c55.33.79,111.06,5.01,165.99,12.59-1.32,64.63,1.7,129.64,9,193.9Z"/>
    <path class="cls-2" d="M356.52,224.29h47.31c7.55,28.92,16.44,57.49,26.68,85.56l48.95-17.85c-24.44-67.02-40.87-136.95-48.84-207.84-.69-6.12-2.3-20.46-14.55-30.32-7.2-5.79-14.92-7.37-19.07-8.22l-73.61-15.05-28.85,291.1,51.85,5.14,10.16-102.52ZM379.44,95.21c3.05,25.82,7.18,51.5,12.33,76.98h-30.08l7.83-79.01,9.92,2.03Z"/>
    <path class="cls-2" d="M533.14,300.06c-.61-17.25-1.38-34.55-2.28-51.87,7.67,10.64,15.68,21.02,24.02,31.1,5.66,6.84,11.47,13.54,17.09,20.02l39.35-34.14c-5.43-6.26-11.04-12.73-16.31-19.1-20.63-24.92-39.09-51.87-54.87-80.11l-9.26,5.18,107.2-114.67-38.06-35.58-79.84,85.41c-1.24-12.57-2.54-25.12-3.93-37.63l-51.78,5.74c8.35,75.26,13.94,151.8,16.61,227.48l52.07-1.84ZM529.01,172.19l-2.93,1.64c-.12-1.57-.24-3.14-.36-4.71l3.29,3.08Z"/>
    <path class="cls-2" d="M694.89,117.13c6.59,45.94,8.82,92.73,6.62,139.09l52.04,2.47c2.28-48.16.09-96.77-6.49-144.55h25.28v-52.1h-122.4v52.1h65.83l-20.89,3Z"/>
    <path class="cls-2" d="M797.18,259.75c-50.05-.43-100.71-2.79-150.59-7.01l-4.39,51.91c51.18,4.33,103.17,6.75,154.52,7.19l.45-52.1Z"/>
  </g>
  <g>
    <path class="cls-1" d="M1087.56,82.67c45.36.29,90.94,2.11,135.98,5.43l3.83-51.96c-60.19-4.44-121.31-6.26-181.66-5.42l.17,12.5-13.31,1.08c6.36,78.38,8.79,157.99,7.23,236.61l-.66,33.56,112.66-26.52-11.94-50.71-47.54,11.19c.11-19.77-.03-39.59-.4-59.41l140.76,14.86,5.47-51.81-147.8-15.61c-.73-17.96-1.66-35.9-2.79-53.8Z"/>
    <path class="cls-1" d="M1357.9,135.83c21.93-21.42,46.8-45.7,60.19-81.73l-48.84-18.15c-9.32,25.08-27.13,42.47-47.75,62.61-5.82,5.68-11.7,11.43-17.48,17.45l3.08-111.46-52.08-1.44-8.62,312.33,52.08,1.44,1.85-67.17,47.76,73.45,43.68-28.4-73.66-113.29c10.39-16.91,24.68-30.88,39.79-45.64ZM1302.44,173.38l1.65.99-1.71,1.11.06-2.1Z"/>
    <path class="cls-1" d="M1622.05,80.83l.52-28-27.96,1.5c-11.56.62-28.03,3.66-42.97,7.92-29.06,8.29-38.04,17.14-42.63,23.92-40.8,60.38-76.35,124.83-105.66,191.55l47.7,20.95c16.09-36.63,34.16-72.53,54-107.4l-.89,17.31,71.51,3.68c2.82,26.96,6.65,53.8,11.49,80.41l51.26-9.32c-12.11-66.66-17.62-134.8-16.36-202.54ZM1525.03,157.5c8.21-13.37,16.68-26.57,25.41-39.56,3.72-2,11.12-4.49,19.4-6.66.17,16.21.73,32.42,1.63,48.62l-46.44-2.39Z"/>
    <path class="cls-1" d="M1796.48,80.79c-8.25-4.74-16.32-4.69-20.2-4.67-4.83.03-20.5.01-35.66,0-15.81-.02-30.75-.03-35.72,0l-26.11.16.22,26.11c.53,62.29,2.76,125.39,6.62,187.54l52-3.23c-1.58-25.39-2.88-50.94-3.9-76.52,7.04-.17,15.38-.39,23.99-.63,15.02-.41,30.55-.83,37.42-.86l24.36-.11,1.52-24.31c1.56-24.88,3.5-55.84-8.77-84.62-2.37-5.57-6.59-13.59-15.76-18.85ZM1756.29,157.47c-8.47.23-17.1.47-24.25.63-.25-9.97-.45-19.94-.61-29.89,3.01,0,6.09,0,9.14,0,9.91,0,19.49.02,26.51.02,2.35,8.93,3.02,18.84,2.97,28.86-4.39.12-9.04.24-13.76.37Z"/>
    <path class="cls-1" d="M1850.02,240.23l51.89-4.7c-4.56-50.34-6.75-101.49-6.52-152.07,7.04.31,14.07.71,21.08,1.2l3.65-51.97c-30.35-2.13-61.16-2.68-91.57-1.64l1.78,52.07c4.31-.15,8.63-.25,12.96-.33-.25,52.37,2.01,105.32,6.73,157.44Z"/>
    <path class="cls-1" d="M1921.78,233.73c-28.22,3.41-56.93,5.87-85.33,7.3l2.63,52.03c29.6-1.49,59.53-4.06,88.95-7.61l-6.25-51.72Z"/>
    <path class="cls-1" d="M987.39,43.42l-1.08-20.43-20.11-3.79c-10.57-1.99-24.46-3.3-39.16-4.68-22.59-2.12-53.52-5.03-65.92-10.77l-7.61,16.46-17.13.06,1.09,300.54,38.99-.14,6.09,6.54c11.87-11.04,27.19-21.33,43.42-32.22,21.89-14.69,44.52-29.88,61.92-49.24,5.67-6.3,13.43-14.94,17.85-27,3.38-9.21,3.96-18.14,4.09-25.67.5-30.19-5.81-58.74-11.91-86.36-4.85-21.95-9.43-42.68-10.52-63.32ZM957.72,192.24c-.03,1.75-.11,6.4-.91,8.57-.97,2.64-4.85,6.96-7.69,10.12-13.07,14.54-32.08,27.3-52.21,40.82-2.52,1.69-5.05,3.39-7.59,5.11l-.7-193.99c10.92,1.4,22.29,2.47,33.53,3.53,5.29.5,10.46.98,15.28,1.48,2.32,17.17,6,33.83,9.59,50.1,5.7,25.81,11.09,50.19,10.69,74.26Z"/>
  </g>
  <g>
    <path class="cls-2" d="M1111.58,90.56c45.36.29,90.94,2.11,135.98,5.43l3.83-51.96c-60.19-4.44-121.31-6.26-181.66-5.42l.17,12.5-13.31,1.08c6.36,78.38,8.79,157.99,7.23,236.61l-.66,33.56,112.66-26.52-11.94-50.71-47.54,11.19c.11-19.77-.03-39.59-.4-59.41l140.76,14.86,5.47-51.81-147.8-15.61c-.73-17.96-1.66-35.9-2.79-53.8Z"/>
    <path class="cls-2" d="M1381.92,143.72c21.93-21.42,46.8-45.7,60.19-81.73l-48.84-18.15c-9.32,25.08-27.13,42.47-47.75,62.61-5.82,5.68-11.7,11.43-17.48,17.45l3.08-111.46-52.08-1.44-8.62,312.33,52.08,1.44,1.85-67.17,47.76,73.45,43.68-28.4-73.66-113.29c10.39-16.91,24.68-30.88,39.79-45.64ZM1326.46,181.26l1.65.99-1.71,1.11.06-2.1Z"/>
    <path class="cls-2" d="M1646.07,88.71l.52-28-27.96,1.5c-11.56.62-28.03,3.66-42.97,7.92-29.06,8.29-38.04,17.14-42.63,23.92-40.8,60.38-76.35,124.83-105.66,191.55l47.7,20.95c16.09-36.63,34.16-72.53,54-107.4l-.89,17.31,71.51,3.68c2.82,26.96,6.65,53.8,11.49,80.41l51.26-9.32c-12.11-66.66-17.62-134.8-16.36-202.54ZM1549.05,165.38c8.21-13.37,16.68-26.57,25.41-39.56,3.72-2,11.12-4.49,19.4-6.66.17,16.21.73,32.42,1.63,48.62l-46.44-2.39Z"/>
    <path class="cls-2" d="M1820.5,88.68c-8.25-4.74-16.32-4.69-20.2-4.67-4.83.03-20.5.01-35.66,0-15.81-.02-30.75-.03-35.72,0l-26.11.16.22,26.11c.53,62.29,2.76,125.39,6.62,187.54l52-3.23c-1.58-25.39-2.88-50.94-3.9-76.52,7.04-.17,15.38-.39,23.99-.63,15.02-.41,30.55-.83,37.42-.86l24.36-.11,1.52-24.31c1.56-24.88,3.5-55.84-8.77-84.62-2.37-5.57-6.59-13.59-15.76-18.85ZM1780.31,165.36c-8.47.23-17.1.47-24.25.63-.25-9.97-.45-19.94-.61-29.89,3.01,0,6.09,0,9.14,0,9.91,0,19.49.02,26.51.02,2.35,8.93,3.02,18.84,2.97,28.86-4.39.12-9.04.24-13.76.37Z"/>
    <path class="cls-2" d="M1874.04,248.12l51.89-4.7c-4.56-50.34-6.75-101.49-6.52-152.07,7.04.31,14.07.71,21.08,1.2l3.65-51.97c-30.35-2.13-61.16-2.68-91.57-1.64l1.78,52.07c4.31-.15,8.63-.25,12.96-.33-.25,52.37,2.01,105.32,6.73,157.44Z"/>
    <path class="cls-2" d="M1945.81,241.61c-28.22,3.41-56.93,5.87-85.33,7.3l2.63,52.03c29.6-1.49,59.53-4.06,88.95-7.61l-6.25-51.72Z"/>
    <path class="cls-2" d="M1011.41,51.31l-1.08-20.43-20.11-3.79c-10.57-1.99-24.46-3.3-39.16-4.68-22.59-2.12-53.52-5.03-65.92-10.77l-7.61,16.46-17.13.06,1.09,300.54,38.99-.14,6.09,6.54c11.87-11.04,27.19-21.33,43.42-32.22,21.89-14.69,44.52-29.88,61.92-49.24,5.67-6.3,13.43-14.94,17.85-27,3.38-9.21,3.96-18.14,4.09-25.67.5-30.19-5.81-58.74-11.91-86.36-4.85-21.95-9.43-42.68-10.52-63.32ZM981.75,200.13c-.03,1.75-.11,6.4-.91,8.57-.97,2.64-4.85,6.96-7.69,10.12-13.07,14.54-32.08,27.3-52.21,40.82-2.52,1.69-5.05,3.39-7.59,5.11l-.7-193.99c10.92,1.4,22.29,2.47,33.53,3.53,5.29.5,10.46.98,15.28,1.48,2.32,17.17,6,33.83,9.59,50.1,5.7,25.81,11.09,50.19,10.69,74.26Z"/>
  </g>
</svg>