<?xml version="1.0" encoding="utf-8"?>
<!-- Generator: Adobe Illustrator 28.1.0, SVG Export Plug-In . SVG Version: 6.00 Build 0)  -->
<svg version="1.1" id="Layer_1" xmlns="http://www.w3.org/2000/svg" xmlns:xlink="http://www.w3.org/1999/xlink" x="0px" y="0px"
	 viewBox="0 0 2881 506" style="enable-background:new 0 0 2881 506;" xml:space="preserve">
<style type="text/css">
	.st0{fill:none;stroke:#FFFFFF;stroke-width:3;stroke-miterlimit:10;}
	.st1{fill:#FFFFFF;}
	.st2{fill:none;stroke:#FFFFFF;stroke-width:5;stroke-linecap:round;stroke-miterlimit:10;}
</style>
<g>
	<g>
		<g>
			<path class="st0" d="M736.5,379.4l-61.4,0.5l0.5,63l132.4-1.1l-4.8-35.4c-12.8-94.9-17.4-191.6-13.9-287.3l1-28l-27.7-4.3
				c-78.1-12.1-157.8-18.9-236.9-20l-0.9,63c66.9,1,134.3,6.1,200.7,15.2C724,223.1,727.7,301.7,736.5,379.4L736.5,379.4z"/>
			<path class="st0" d="M922.9,310h57.2c9.1,35,19.9,69.5,32.3,103.4l59.2-21.6c-29.5-81-49.4-165.6-59-251.3
				c-0.8-7.4-2.8-24.7-17.6-36.7c-8.7-7-18-8.9-23.1-9.9l-89-18.2L848,427.7l62.7,6.2L922.9,310L922.9,310z M950.7,154
				c3.7,31.2,8.7,62.3,14.9,93.1h-36.4l9.5-95.5L950.7,154z"/>
			<path class="st0" d="M1136.5,401.6c-0.7-20.9-1.7-41.8-2.8-62.7c9.3,12.9,19,25.4,29,37.6c6.8,8.3,13.9,16.4,20.7,24.2l47.6-41.3
				c-6.6-7.6-13.3-15.4-19.7-23.1c-24.9-30.1-47.3-62.7-66.3-96.8l-11.2,6.3l129.6-138.6l-46-43l-96.5,103.3
				c-1.5-15.2-3.1-30.4-4.8-45.5l-62.6,6.9c10.1,91,16.9,183.5,20.1,275L1136.5,401.6L1136.5,401.6z M1131.5,247l-3.5,2
				c-0.1-1.9-0.3-3.8-0.4-5.7L1131.5,247L1131.5,247z"/>
			<path class="st0" d="M1332,180.5c8,55.5,10.7,112.1,8,168.1l62.9,3c2.8-58.2,0.1-117-7.8-174.7h30.6v-63h-148v63h79.6L1332,180.5
				L1332,180.5z"/>
			<path class="st0" d="M1455.7,352.8c-60.5-0.5-121.7-3.4-182-8.5l-5.3,62.8c61.9,5.2,124.7,8.2,186.8,8.7L1455.7,352.8
				L1455.7,352.8z"/>
		</g>
		<g>
			<path class="st1" d="M765.5,388.9l-61.4,0.5l0.5,63l132.4-1.1l-4.8-35.4c-12.8-94.9-17.4-191.6-13.9-287.3l1-28l-27.7-4.3
				c-78.1-12.1-157.8-18.9-236.9-20l-0.9,63c66.9,1,134.3,6.1,200.7,15.2C753.1,232.7,756.7,311.2,765.5,388.9L765.5,388.9z"/>
			<path class="st1" d="M952,319.5h57.2c9.1,35,19.9,69.5,32.3,103.4l59.2-21.6c-29.5-81-49.4-165.6-59-251.3
				c-0.8-7.4-2.8-24.7-17.6-36.7c-8.7-7-18-8.9-23.1-9.9l-89-18.2l-34.9,351.9l62.7,6.2L952,319.5L952,319.5z M979.7,163.5
				c3.7,31.2,8.7,62.3,14.9,93.1h-36.4l9.5-95.5L979.7,163.5z"/>
			<path class="st1" d="M1165.5,411.1c-0.7-20.9-1.7-41.8-2.8-62.7c9.3,12.9,19,25.4,29,37.6c6.8,8.3,13.9,16.4,20.7,24.2l47.6-41.3
				c-6.6-7.6-13.3-15.4-19.7-23.1c-24.9-30.1-47.3-62.7-66.3-96.8l-11.2,6.3l129.6-138.6l-46-43l-96.5,103.3
				c-1.5-15.2-3.1-30.4-4.8-45.5l-62.6,6.9c10.1,91,16.9,183.5,20.1,275L1165.5,411.1L1165.5,411.1z M1160.5,256.5l-3.5,2
				c-0.1-1.9-0.3-3.8-0.4-5.7L1160.5,256.5L1160.5,256.5z"/>
			<path class="st1" d="M1361,190c8,55.5,10.7,112.1,8,168.1l62.9,3c2.8-58.2,0.1-117-7.8-174.7h30.6v-63h-148v63h79.6L1361,190
				L1361,190z"/>
			<path class="st1" d="M1484.7,362.4c-60.5-0.5-121.7-3.4-182-8.5l-5.3,62.8c61.9,5.2,124.7,8.2,186.8,8.7L1484.7,362.4
				L1484.7,362.4z"/>
		</g>
		<g>
			<path class="st0" d="M1835.7,148.3c54.8,0.4,109.9,2.6,164.4,6.6l4.6-62.8c-72.8-5.4-146.6-7.6-219.6-6.6l0.2,15.1l-16.1,1.3
				c7.7,94.8,10.6,191,8.7,286l-0.8,40.6l136.2-32.1l-14.4-61.3l-57.5,13.5c0.1-23.9,0-47.9-0.5-71.8l170.2,18l6.6-62.6l-178.7-18.9
				C1838.2,191.6,1837.1,169.9,1835.7,148.3L1835.7,148.3z"/>
			<path class="st0" d="M2162.5,212.6c26.5-25.9,56.6-55.2,72.8-98.8l-59-21.9c-11.3,30.3-32.8,51.3-57.7,75.7
				c-7,6.9-14.1,13.8-21.1,21.1l3.7-134.7l-63-1.7l-10.4,377.6l63,1.7l2.2-81.2l57.7,88.8l52.8-34.3l-89-137
				C2127,247.3,2144.3,230.4,2162.5,212.6L2162.5,212.6z M2095.5,258l2,1.2l-2.1,1.3L2095.5,258L2095.5,258z"/>
			<path class="st0" d="M2481.9,146.1l0.6-33.8l-33.8,1.8c-14,0.7-33.9,4.4-51.9,9.6c-35.1,10-46,20.7-51.5,28.9
				c-49.3,73-92.3,150.9-127.7,231.6l57.7,25.3c19.5-44.3,41.3-87.7,65.3-129.8l-1.1,20.9l86.4,4.4c3.4,32.6,8,65,13.9,97.2l62-11.3
				C2487,310.3,2480.3,228,2481.9,146.1L2481.9,146.1z M2364.6,238.8c9.9-16.2,20.2-32.1,30.7-47.8c4.5-2.4,13.4-5.4,23.5-8.1
				c0.2,19.6,0.9,39.2,2,58.8L2364.6,238.8L2364.6,238.8z"/>
			<path class="st0" d="M2692.7,146c-10-5.7-19.7-5.7-24.4-5.6c-5.8,0-24.8,0-43.1,0c-19.1,0-37.2,0-43.2,0l-31.6,0.2l0.3,31.6
				c0.6,75.3,3.3,151.6,8,226.7l62.9-3.9c-1.9-30.7-3.5-61.6-4.7-92.5c8.5-0.2,18.6-0.5,29-0.8c18.2-0.5,36.9-1,45.2-1l29.4-0.1
				l1.8-29.4c1.9-30.1,4.2-67.5-10.6-102.3C2708.9,162.1,2703.8,152.4,2692.7,146L2692.7,146z M2644.1,238.7
				c-10.2,0.3-20.7,0.6-29.3,0.8c-0.3-12.1-0.5-24.1-0.7-36.1c3.6,0,7.4,0,11,0c12,0,23.6,0,32,0c2.8,10.8,3.7,22.8,3.6,34.9
				C2655.5,238.4,2649.8,238.6,2644.1,238.7L2644.1,238.7z"/>
			<path class="st0" d="M2757.4,338.8l62.7-5.7c-5.5-60.9-8.2-122.7-7.9-183.8c8.5,0.4,17,0.9,25.5,1.5l4.4-62.8
				c-36.7-2.6-73.9-3.2-110.7-2l2.2,62.9c5.2-0.2,10.4-0.3,15.7-0.4C2749,211.8,2751.7,275.8,2757.4,338.8L2757.4,338.8z"/>
			<path class="st0" d="M2844.2,330.9c-34.1,4.1-68.8,7.1-103.2,8.8l3.2,62.9c35.8-1.8,72-4.9,107.5-9.2L2844.2,330.9L2844.2,330.9z
				"/>
			<path class="st0" d="M1714.6,100.9l-1.3-24.7l-24.3-4.6c-12.8-2.4-29.6-4-47.3-5.7c-27.3-2.6-64.7-6.1-79.7-13l-9.2,19.9
				l-20.7,0.1l1.3,363.3l47.1-0.2l7.4,7.9c14.3-13.3,32.9-25.8,52.5-38.9c26.5-17.8,53.8-36.1,74.9-59.5
				c6.9-7.6,16.2-18.1,21.6-32.6c4.1-11.1,4.8-21.9,4.9-31c0.6-36.5-7-71-14.4-104.4C1721.5,150.9,1716,125.8,1714.6,100.9
				L1714.6,100.9z M1678.8,280.8c0,2.1-0.1,7.7-1.1,10.4c-1.2,3.2-5.9,8.4-9.3,12.2c-15.8,17.6-38.8,33-63.1,49.3
				c-3,2-6.1,4.1-9.2,6.2l-0.8-234.5c13.2,1.7,26.9,3,40.5,4.3c6.4,0.6,12.6,1.2,18.5,1.8c2.8,20.8,7.3,40.9,11.6,60.6
				C1672.7,222.2,1679.2,251.7,1678.8,280.8L1678.8,280.8z"/>
		</g>
		<g>
			<path class="st1" d="M1864.8,157.9c54.8,0.4,109.9,2.6,164.4,6.6l4.6-62.8c-72.8-5.4-146.6-7.6-219.6-6.6l0.2,15.1l-16.1,1.3
				c7.7,94.8,10.6,191,8.7,286l-0.8,40.6l136.2-32.1l-14.4-61.3l-57.5,13.5c0.1-23.9,0-47.9-0.5-71.8l170.2,18l6.6-62.6l-178.7-18.9
				C1867.3,201.2,1866.1,179.5,1864.8,157.9L1864.8,157.9z"/>
			<path class="st1" d="M2191.6,222.1c26.5-25.9,56.6-55.2,72.8-98.8l-59-21.9c-11.3,30.3-32.8,51.3-57.7,75.7
				c-7,6.9-14.1,13.8-21.1,21.1l3.7-134.7l-63-1.7l-10.4,377.6l63,1.7l2.2-81.2l57.7,88.8l52.8-34.3l-89-137
				C2156,256.9,2173.3,240,2191.6,222.1L2191.6,222.1z M2124.5,267.5l2,1.2l-2.1,1.3L2124.5,267.5L2124.5,267.5z"/>
			<path class="st1" d="M2510.9,155.6l0.6-33.8l-33.8,1.8c-14,0.7-33.9,4.4-51.9,9.6c-35.1,10-46,20.7-51.5,28.9
				c-49.3,73-92.3,150.9-127.7,231.6l57.7,25.3c19.5-44.3,41.3-87.7,65.3-129.8l-1.1,20.9l86.4,4.4c3.4,32.6,8,65,13.9,97.2l62-11.3
				C2516,319.9,2509.4,237.5,2510.9,155.6L2510.9,155.6z M2393.6,248.3c9.9-16.2,20.2-32.1,30.7-47.8c4.5-2.4,13.4-5.4,23.5-8.1
				c0.2,19.6,0.9,39.2,2,58.8L2393.6,248.3L2393.6,248.3z"/>
			<path class="st1" d="M2721.8,155.6c-10-5.7-19.7-5.7-24.4-5.6c-5.8,0-24.8,0-43.1,0c-19.1,0-37.2,0-43.2,0l-31.6,0.2l0.3,31.6
				c0.6,75.3,3.3,151.6,8,226.7l62.9-3.9c-1.9-30.7-3.5-61.6-4.7-92.5c8.5-0.2,18.6-0.5,29-0.8c18.2-0.5,36.9-1,45.2-1l29.4-0.1
				l1.8-29.4c1.9-30.1,4.2-67.5-10.6-102.3C2738,171.7,2732.9,162,2721.8,155.6L2721.8,155.6z M2673.2,248.3
				c-10.2,0.3-20.7,0.6-29.3,0.8c-0.3-12.1-0.5-24.1-0.7-36.1c3.6,0,7.4,0,11,0c12,0,23.6,0,32,0c2.8,10.8,3.7,22.8,3.6,34.9
				C2684.5,248,2678.9,248.1,2673.2,248.3L2673.2,248.3z"/>
			<path class="st1" d="M2786.5,348.3l62.7-5.7c-5.5-60.9-8.2-122.7-7.9-183.8c8.5,0.4,17,0.9,25.5,1.5l4.4-62.8
				c-36.7-2.6-73.9-3.2-110.7-2l2.2,62.9c5.2-0.2,10.4-0.3,15.7-0.4C2778,221.3,2780.8,285.3,2786.5,348.3z"/>
			<path class="st1" d="M2873.2,340.5c-34.1,4.1-68.8,7.1-103.2,8.8l3.2,62.9c35.8-1.8,72-4.9,107.5-9.2L2873.2,340.5L2873.2,340.5z
				"/>
			<path class="st1" d="M1743.7,110.4l-1.3-24.7l-24.3-4.6c-12.8-2.4-29.6-4-47.3-5.7c-27.3-2.6-64.7-6.1-79.7-13l-9.2,19.9
				l-20.7,0.1l1.3,363.3l47.1-0.2l7.4,7.9c14.3-13.3,32.9-25.8,52.5-38.9c26.5-17.8,53.8-36.1,74.9-59.5
				c6.9-7.6,16.2-18.1,21.6-32.6c4.1-11.1,4.8-21.9,4.9-31c0.6-36.5-7-71-14.4-104.4C1750.5,160.4,1745,135.3,1743.7,110.4
				L1743.7,110.4z M1707.8,290.3c0,2.1-0.1,7.7-1.1,10.4c-1.2,3.2-5.9,8.4-9.3,12.2c-15.8,17.6-38.8,33-63.1,49.3
				c-3,2-6.1,4.1-9.2,6.2l-0.8-234.5c13.2,1.7,26.9,3,40.5,4.3c6.4,0.6,12.6,1.2,18.5,1.8c2.8,20.8,7.3,40.9,11.6,60.6
				C1701.8,231.7,1708.3,261.2,1707.8,290.3L1707.8,290.3z"/>
		</g>
	</g>
	<g>
		<g>
			<g>
				<path class="st1" d="M203.7,199.7c-10.7,8.1-23.3,15.3-37.7,21.7c-1.4,0.6-2.9,0.9-4.4,0.9c-4.1,0-8.1-2.3-10-6.3
					c-2.5-5.4-0.3-11.8,5-14.5c9.9-5,17.1-13.2,22.4-22.3c-0.6,0.6-1.3,1.3-1.9,1.9c-11.2,11.1-31,29.8-46.1,38.3
					c18.5,1.9,36,5.6,52.8,11.3c0.3-1.7,1-3.4,2.2-4.9C193,216.8,198.9,208.2,203.7,199.7z"/>
				<path class="st1" d="M396.9,276.4c-0.3,0.2-0.6,0.4-0.9,0.6c-1.7,0.9-3.5,1.4-5.4,1.4c-1.8,0-3.7-0.5-5.3-1.4
					c-6.6-3.7-11-10-14.4-15.1c-2.2-3.3-4.5-6.7-6.8-10.2c-0.1,6.4-0.3,12.7-0.4,19.1c-0.1,4-2.4,7.7-6.1,9.5
					c-1.6,0.8-3.3,1.2-4.9,1.2c-2.2,0-4.4-0.7-6.3-2c-4.7-3.3-9.2-10-13.3-18.2c-1.6-0.4-3.1-0.9-4.7-1.3
					c-6.2,28.8-9.2,58.1-8.8,87.2l-14.8,0.2c-0.4-30.3,2.7-60.7,9.1-90.6c-14.5-2.7-29.6-4.2-45.7-4.4l0.2-14.8
					c20.4,0.2,39.3,2.4,57.4,6.5c-2-5.4-3.9-10.9-5.5-15.9c-1.8-5.8-6.1-19.9-8.8-34.2c-7.9,6.3-19.2,14.4-35.6,24.8
					c-22.9,14.6-48.2,28.9-57.5,33.1c-1.5,0.7-3,1-4.5,1c-3.4,0-6.6-1.5-8.8-4.4c-2-2.6-2.6-5.8-2-8.8c-0.2,0.2-0.4,0.4-0.5,0.5
					c-2.1,2.1-5,3.2-7.8,3.2c-2.6,0-5.2-0.9-7.3-2.8c-2.2-1.9-3.4-4.6-3.7-7.3l-3.9,11.4c-5.1-1.7-10.3-3.2-15.5-4.6
					c-6.2,28.8-9.2,58.1-8.8,87.2l-14.8,0.2c-0.4-30.3,2.7-60.7,9.1-90.6c-14.5-2.7-29.6-4.2-45.7-4.4l0-2.8
					c-1.8,1.6-3.5,3.2-5.2,4.6c-11.9,10.2-20.6,15.1-28,15.6c-0.3,0-0.6,0-0.8,0c-0.7,0-1.4-0.1-2.1-0.2
					c-1.3,28.6-0.6,54.8,2.1,78.8c10.1,89.7,48.6,143.1,114.6,158.6c49,10.5,100,0.4,136.5-27.2c41.6-32.9,66.5-101.8,83.4-169.1
					C402,286.2,399.4,281.4,396.9,276.4z M154.8,405.5h-13.9v-13.9h13.9V405.5z M182.3,375.8l2.4-12.7c16.4,3.1,23.7-0.5,31.4-15.5
					c1.9-3.9,3.7-8.5,5.5-14.6c3-10.3,5.6-21,8.2-31.3c4.4-17.8,8.9-36.2,15.6-53.8l12.1,4.6c-6.4,16.9-10.8,34.9-15.1,52.4
					c-2.6,10.5-5.3,21.3-8.3,31.9c-2.1,6.8-4.1,12.1-6.4,16.7c-8.3,16.3-18.5,23.6-33.7,23.6C190.3,377,186.4,376.6,182.3,375.8z
					 M228.7,443c-10.2,0-21.5-1.7-35.4-5.1l3.5-14.4c35.3,8.6,48.8,5.7,80.2-9.8l6.6,13.3C262,437.5,247,443,228.7,443z"/>
			</g>
			<path class="st1" d="M443.3,246.6c-1-17.8-2-35.7-3-53.5c2.9,14.2,7.5,28.7,13.7,41.4c-1.8-26.1,1.9-59-9-77.7
				c-10.9-18.6-16.8-17.9-25.4-25.3c8.7-0.5,17.4,2.5,24.4,8.3c-4.6-13.6-13.6-24.8-24-33.4c-10.4-8.6-22.2-14.3-33.8-20.5
				c11.3-0.8,22.8,3.2,31.8,10.9c-6.3-7.4-12.7-14.8-19-22.2c-3.2-3.7-6.3-7.4-9.8-10.7c-12.7-12.2-29.9-20.4-46.6-20
				c18.7-5.9,38.5-4.4,57.8-2.9c-10.1-5.2-21.6-5.6-32.7-5.9c-10.7-0.3-21.6,0-32.3-0.1c-15.7-18.1-36.3-30.5-58.3-35
				c12.5,8.8,24.4,18.8,35.6,29.7c1.5,1.5,3.1,3.8,2.1,5.7c-17.8-6.9-36.5-9.9-55.1-12.9c-17-2.7-34.5-5.4-51.2-0.7
				c-5.8,1.6-11.6,4.2-17.5,3.7c11.6,1,22.2,3,33.2,7.5c-25.4-3.6-51.1,1.6-76.3,6.8c5.6,0,10.6,0.5,16.2,0.5
				c-28.1,1.8-55.7,13.4-78.2,33c11-3.8,22-7.6,32.9-11.4C108.2,72.2,95.5,76,83.5,85.1c-20.4,15.7-54.2,57.6-56.3,81
				c1.2-7.5,31.8-45,38.6-42.8c-12.9,31.1-26.6,61.5-41,91.2c24.2-1.3,49-17.3,70.2-39.7c-11.5,21.7-20.7,44.3-24.8,64.3
				c20-1.5,83.2-76.3,96.1-104.9c-11.2,29.6-26.4,56.1-44.5,77.4c22.7-9.8,76.7-66.3,82.1-78.9c-1.8,20.8-11,62.8-42.4,78.6
				c30.2-13.2,55.9-32.1,69.7-61.9c-2,30.1-16.9,58-36.6,83.1c22.6-22.6,43.4-50.1,57.8-84.1c9.8,44.6-11.5,61.2-38.7,93.6
				c16.1-7.3,98.2-54.8,106.5-72.6c-2.4,22.5,19.3,92.1,32.3,101.2c0.5-18.5,0.8-36.9,0.7-55.4c0-5.5-0.1-11.1-0.8-16.4
				c4.7,22.3,16,40.4,27.4,57c3.2,4.6,6.5,9.3,10.7,11.7c0.3-6.4-2.4-12.1-4.7-17.4c-7.4-17.4-6.8-23.6-7.8-44.3
				c6.5,17.2,14.2,35,21.6,51.4c7.2,15.8,15.3,30.7,24.1,44.5c1.7-10-1.3-21.9-3.4-31.6c-4.3-19.7-4.4-40.9-4.2-61.8
				c5.6,32.5,12.6,47.5,28.1,71.9C443.6,269.5,443.9,257.2,443.3,246.6z"/>
			<path class="st1" d="M50,243.4c-0.1-7.3-0.1-12.4,0-13.9c-8.6-6.5-19.1-11.6-30.8-8l-0.4,0.1c-16.6,6-20.3,25.2-18.5,39.7
				c1.8,15,8.8,28.6,14.6,38.8c9,16.3,19.8,27.6,37,38.9c-0.1-0.6-0.2-5.5-0.4-13C49,300.8,48.5,273.4,50,243.4z"/>
			<path class="st1" d="M449.2,290.1l-0.4-0.2c-8-4.6-16.5-4.2-24.4-1.9c-5,20.5-10.7,41.3-17.3,61.3c-5.9,17.6-12.1,33.6-18.8,47.9
				c19.9-7.1,33.3-15.8,46.1-29.8c8.1-8.6,18.1-20.2,23.4-34.4C463,319.2,463.9,299.7,449.2,290.1z"/>
		</g>
		<g>
			<path class="st2" d="M181.6,506.3l-0.2,0c-40.1-9.4-71.5-31.2-93.4-64.6"/>
			<path class="st2" d="M376.9,422.8c-13,22.7-27.4,40.2-43.4,52.9l-0.1,0.1"/>
		</g>
	</g>
</g>
</svg>
